<svg width="128" height="64" viewBox="0 0 128 64" fill="none" xmlns="http://www.w3.org/2000/svg">
    <path d="M11.0286 23.2727H12.0854V29.5114C12.0854 30.0682 11.9831 30.5412 11.7786 30.9304C11.574 31.3196 11.2857 31.6151 10.9135 31.8168C10.5414 32.0185 10.1025 32.1193 9.59677 32.1193C9.1195 32.1193 8.69478 32.0327 8.32262 31.8594C7.95046 31.6832 7.65785 31.4332 7.44478 31.1094C7.23171 30.7855 7.12518 30.4006 7.12518 29.9545H8.16495C8.16495 30.2017 8.22603 30.4176 8.34819 30.6023C8.47319 30.7841 8.64364 30.9261 8.85955 31.0284C9.07546 31.1307 9.3212 31.1818 9.59677 31.1818C9.90075 31.1818 10.1593 31.1179 10.3723 30.9901C10.5854 30.8622 10.7473 30.6747 10.8581 30.4276C10.9718 30.1776 11.0286 29.8722 11.0286 29.5114V23.2727ZM21.5669 27.6364C21.5669 28.5568 21.4007 29.3523 21.0684 30.0227C20.736 30.6932 20.28 31.2102 19.7005 31.5739C19.1209 31.9375 18.459 32.1193 17.7147 32.1193C16.9703 32.1193 16.3084 31.9375 15.7289 31.5739C15.1493 31.2102 14.6934 30.6932 14.361 30.0227C14.0286 29.3523 13.8624 28.5568 13.8624 27.6364C13.8624 26.7159 14.0286 25.9205 14.361 25.25C14.6934 24.5795 15.1493 24.0625 15.7289 23.6989C16.3084 23.3352 16.9703 23.1534 17.7147 23.1534C18.459 23.1534 19.1209 23.3352 19.7005 23.6989C20.28 24.0625 20.736 24.5795 21.0684 25.25C21.4007 25.9205 21.5669 26.7159 21.5669 27.6364ZM20.5442 27.6364C20.5442 26.8807 20.4178 26.2429 20.165 25.723C19.915 25.2031 19.5755 24.8097 19.1465 24.5426C18.7203 24.2756 18.2431 24.142 17.7147 24.142C17.1863 24.142 16.7076 24.2756 16.2786 24.5426C15.8525 24.8097 15.513 25.2031 15.2601 25.723C15.0101 26.2429 14.8851 26.8807 14.8851 27.6364C14.8851 28.392 15.0101 29.0298 15.2601 29.5497C15.513 30.0696 15.8525 30.4631 16.2786 30.7301C16.7076 30.9972 17.1863 31.1307 17.7147 31.1307C18.2431 31.1307 18.7203 30.9972 19.1465 30.7301C19.5755 30.4631 19.915 30.0696 20.165 29.5497C20.4178 29.0298 20.5442 28.392 20.5442 27.6364ZM23.3439 32V23.2727H26.2928C26.9746 23.2727 27.5343 23.3892 27.9718 23.6222C28.4093 23.8523 28.7331 24.169 28.9434 24.5724C29.1536 24.9759 29.2587 25.4347 29.2587 25.9489C29.2587 26.4631 29.1536 26.919 28.9434 27.3168C28.7331 27.7145 28.4107 28.027 27.976 28.2543C27.5414 28.4787 26.986 28.5909 26.3098 28.5909H23.9235V27.6364H26.2757C26.7417 27.6364 27.1167 27.5682 27.4007 27.4318C27.6877 27.2955 27.8951 27.1023 28.0229 26.8523C28.1536 26.5994 28.2189 26.2983 28.2189 25.9489C28.2189 25.5994 28.1536 25.294 28.0229 25.0327C27.8922 24.7713 27.6834 24.5696 27.3965 24.4276C27.1096 24.2827 26.7303 24.2102 26.2587 24.2102H24.4007V32H23.3439ZM27.4519 28.0795L29.5996 32H28.3723L26.2587 28.0795H27.4519ZM33.7129 32H31.0197V23.2727H33.8322C34.6788 23.2727 35.4032 23.4474 36.0055 23.7969C36.6078 24.1435 37.0694 24.642 37.3904 25.2926C37.7115 25.9403 37.872 26.7159 37.872 27.6193C37.872 28.5284 37.7101 29.3111 37.3862 29.9673C37.0623 30.6207 36.5907 31.1236 35.9714 31.4759C35.3521 31.8253 34.5993 32 33.7129 32ZM32.0765 31.0625H33.6447C34.3663 31.0625 34.9643 30.9233 35.4387 30.6449C35.9132 30.3665 36.2669 29.9702 36.4998 29.456C36.7328 28.9418 36.8493 28.3295 36.8493 27.6193C36.8493 26.9148 36.7342 26.3082 36.5041 25.7997C36.274 25.2884 35.9302 24.8963 35.4728 24.6236C35.0154 24.348 34.4458 24.2102 33.764 24.2102H32.0765V31.0625ZM40.7015 23.2727V32H39.6447V23.2727H40.7015ZM46.1614 23.2727H47.2182V29.5114C47.2182 30.0682 47.1159 30.5412 46.9114 30.9304C46.7069 31.3196 46.4185 31.6151 46.0463 31.8168C45.6742 32.0185 45.2353 32.1193 44.7296 32.1193C44.2523 32.1193 43.8276 32.0327 43.4554 31.8594C43.0833 31.6832 42.7907 31.4332 42.5776 31.1094C42.3645 30.7855 42.258 30.4006 42.258 29.9545H43.2978C43.2978 30.2017 43.3588 30.4176 43.481 30.6023C43.606 30.7841 43.7765 30.9261 43.9924 31.0284C44.2083 31.1307 44.454 31.1818 44.7296 31.1818C45.0336 31.1818 45.2921 31.1179 45.5051 30.9901C45.7182 30.8622 45.8801 30.6747 45.9909 30.4276C46.1046 30.1776 46.1614 29.8722 46.1614 29.5114V23.2727ZM49.6941 32H48.5861L51.7907 23.2727H52.8816L56.0861 32H54.9782L52.3702 24.6534H52.302L49.6941 32ZM50.1032 28.5909H54.5691V29.5284H50.1032V28.5909ZM62.2182 25.4545C62.1671 25.0227 61.9597 24.6875 61.5961 24.4489C61.2324 24.2102 60.7864 24.0909 60.258 24.0909C59.8716 24.0909 59.5336 24.1534 59.2438 24.2784C58.9569 24.4034 58.7324 24.5753 58.5705 24.794C58.4114 25.0128 58.3319 25.2614 58.3319 25.5398C58.3319 25.7727 58.3873 25.973 58.498 26.1406C58.6117 26.3054 58.7566 26.4432 58.9327 26.554C59.1088 26.6619 59.2935 26.7514 59.4867 26.8224C59.6799 26.8906 59.8574 26.946 60.0194 26.9886L60.9057 27.2273C61.133 27.2869 61.3858 27.3693 61.6642 27.4744C61.9455 27.5795 62.214 27.723 62.4696 27.9048C62.7282 28.0838 62.9412 28.3139 63.1088 28.5952C63.2765 28.8764 63.3603 29.2216 63.3603 29.6307C63.3603 30.1023 63.2367 30.5284 62.9895 30.9091C62.7452 31.2898 62.3873 31.5923 61.9157 31.8168C61.4469 32.0412 60.8773 32.1534 60.2069 32.1534C59.5819 32.1534 59.0407 32.0526 58.5833 31.8509C58.1287 31.6491 57.7708 31.3679 57.5094 31.0071C57.2509 30.6463 57.1046 30.2273 57.0705 29.75H58.1614C58.1898 30.0795 58.3006 30.3523 58.4938 30.5682C58.6898 30.7812 58.937 30.9403 59.2353 31.0455C59.5364 31.1477 59.8603 31.1989 60.2069 31.1989C60.6103 31.1989 60.9725 31.1335 61.2935 31.0028C61.6145 30.8693 61.8688 30.6847 62.0563 30.4489C62.2438 30.2102 62.3375 29.9318 62.3375 29.6136C62.3375 29.3239 62.2566 29.0881 62.0946 28.9062C61.9327 28.7244 61.7196 28.5767 61.4554 28.4631C61.1912 28.3494 60.9057 28.25 60.5989 28.1648L59.525 27.858C58.8432 27.6619 58.3034 27.3821 57.9057 27.0185C57.508 26.6548 57.3091 26.179 57.3091 25.5909C57.3091 25.1023 57.4412 24.6761 57.7054 24.3125C57.9725 23.946 58.3304 23.6619 58.7793 23.4602C59.231 23.2557 59.7353 23.1534 60.2921 23.1534C60.8546 23.1534 61.3546 23.2543 61.7921 23.456C62.2296 23.6548 62.5762 23.9276 62.8319 24.2741C63.0904 24.6207 63.2267 25.0142 63.2409 25.4545H62.2182ZM65.0978 32V23.2727H68.0467C68.7314 23.2727 69.291 23.3963 69.7257 23.6435C70.1632 23.8878 70.487 24.2188 70.6973 24.6364C70.9075 25.054 71.0126 25.5199 71.0126 26.0341C71.0126 26.5483 70.9075 27.0156 70.6973 27.4361C70.4899 27.8565 70.1689 28.1918 69.7342 28.4418C69.2995 28.6889 68.7427 28.8125 68.0637 28.8125H65.9501V27.875H68.0297C68.4984 27.875 68.8748 27.794 69.1589 27.6321C69.443 27.4702 69.649 27.2514 69.7768 26.9759C69.9075 26.6974 69.9728 26.3835 69.9728 26.0341C69.9728 25.6847 69.9075 25.3722 69.7768 25.0966C69.649 24.821 69.4416 24.6051 69.1547 24.4489C68.8677 24.2898 68.487 24.2102 68.0126 24.2102H66.1547V32H65.0978ZM72.715 32V23.2727H77.9821V24.2102H73.7718V27.1591H77.7093V28.0966H73.7718V31.0625H78.0502V32H72.715ZM79.8869 32V23.2727H82.8358C83.5176 23.2727 84.0772 23.3892 84.5147 23.6222C84.9522 23.8523 85.2761 24.169 85.4863 24.5724C85.6966 24.9759 85.8017 25.4347 85.8017 25.9489C85.8017 26.4631 85.6966 26.919 85.4863 27.3168C85.2761 27.7145 84.9537 28.027 84.519 28.2543C84.0843 28.4787 83.5289 28.5909 82.8528 28.5909H80.4664V27.6364H82.8187C83.2846 27.6364 83.6596 27.5682 83.9437 27.4318C84.2306 27.2955 84.438 27.1023 84.5659 26.8523C84.6966 26.5994 84.7619 26.2983 84.7619 25.9489C84.7619 25.5994 84.6966 25.294 84.5659 25.0327C84.4352 24.7713 84.2264 24.5696 83.9395 24.4276C83.6525 24.2827 83.2733 24.2102 82.8017 24.2102H80.9437V32H79.8869ZM83.9949 28.0795L86.1426 32H84.9153L82.8017 28.0795H83.9949ZM92.3354 25.4545C92.2843 25.0227 92.0769 24.6875 91.7132 24.4489C91.3496 24.2102 90.9036 24.0909 90.3752 24.0909C89.9888 24.0909 89.6507 24.1534 89.361 24.2784C89.074 24.4034 88.8496 24.5753 88.6877 24.794C88.5286 25.0128 88.449 25.2614 88.449 25.5398C88.449 25.7727 88.5044 25.973 88.6152 26.1406C88.7289 26.3054 88.8738 26.4432 89.0499 26.554C89.226 26.6619 89.4107 26.7514 89.6039 26.8224C89.7971 26.8906 89.9746 26.946 90.1365 26.9886L91.0229 27.2273C91.2502 27.2869 91.503 27.3693 91.7814 27.4744C92.0627 27.5795 92.3311 27.723 92.5868 27.9048C92.8453 28.0838 93.0584 28.3139 93.226 28.5952C93.3936 28.8764 93.4775 29.2216 93.4775 29.6307C93.4775 30.1023 93.3539 30.5284 93.1067 30.9091C92.8624 31.2898 92.5044 31.5923 92.0328 31.8168C91.5641 32.0412 90.9945 32.1534 90.324 32.1534C89.699 32.1534 89.1578 32.0526 88.7005 31.8509C88.2459 31.6491 87.888 31.3679 87.6266 31.0071C87.3681 30.6463 87.2218 30.2273 87.1877 29.75H88.2786C88.307 30.0795 88.4178 30.3523 88.611 30.5682C88.807 30.7812 89.0542 30.9403 89.3525 31.0455C89.6536 31.1477 89.9775 31.1989 90.324 31.1989C90.7275 31.1989 91.0897 31.1335 91.4107 31.0028C91.7317 30.8693 91.986 30.6847 92.1735 30.4489C92.361 30.2102 92.4547 29.9318 92.4547 29.6136C92.4547 29.3239 92.3738 29.0881 92.2118 28.9062C92.0499 28.7244 91.8368 28.5767 91.5726 28.4631C91.3084 28.3494 91.0229 28.25 90.7161 28.1648L89.6422 27.858C88.9604 27.6619 88.4206 27.3821 88.0229 27.0185C87.6252 26.6548 87.4263 26.179 87.4263 25.5909C87.4263 25.1023 87.5584 24.6761 87.8226 24.3125C88.0897 23.946 88.4476 23.6619 88.8965 23.4602C89.3482 23.2557 89.8525 23.1534 90.4093 23.1534C90.9718 23.1534 91.4718 23.2543 91.9093 23.456C92.3468 23.6548 92.6934 23.9276 92.949 24.2741C93.2076 24.6207 93.3439 25.0142 93.3581 25.4545H92.3354ZM95.8116 32.0682C95.6014 32.0682 95.421 31.9929 95.2704 31.8423C95.1199 31.6918 95.0446 31.5114 95.0446 31.3011C95.0446 31.0909 95.1199 30.9105 95.2704 30.7599C95.421 30.6094 95.6014 30.5341 95.8116 30.5341C96.0218 30.5341 96.2022 30.6094 96.3528 30.7599C96.5034 30.9105 96.5787 31.0909 96.5787 31.3011C96.5787 31.4403 96.5431 31.5682 96.4721 31.6847C96.4039 31.8011 96.3116 31.8949 96.1951 31.9659C96.0815 32.0341 95.9537 32.0682 95.8116 32.0682ZM101.213 32H98.5197V23.2727H101.332C102.179 23.2727 102.903 23.4474 103.506 23.7969C104.108 24.1435 104.569 24.642 104.89 25.2926C105.211 25.9403 105.372 26.7159 105.372 27.6193C105.372 28.5284 105.21 29.3111 104.886 29.9673C104.562 30.6207 104.091 31.1236 103.471 31.4759C102.852 31.8253 102.099 32 101.213 32ZM99.5765 31.0625H101.145C101.866 31.0625 102.464 30.9233 102.939 30.6449C103.413 30.3665 103.767 29.9702 104 29.456C104.233 28.9418 104.349 28.3295 104.349 27.6193C104.349 26.9148 104.234 26.3082 104.004 25.7997C103.774 25.2884 103.43 24.8963 102.973 24.6236C102.515 24.348 101.946 24.2102 101.264 24.2102H99.5765V31.0625ZM107.145 32V23.2727H112.412V24.2102H108.202V27.1591H112.139V28.0966H108.202V31.0625H112.48V32H107.145ZM114.675 23.2727L117.265 30.6193H117.368L119.959 23.2727H121.067L117.862 32H116.771L113.567 23.2727H114.675Z" fill="white"/>
    <path d="M10.1782 37.7273C10.1526 37.5114 10.0489 37.3438 9.86713 37.2244C9.68531 37.1051 9.4623 37.0455 9.19809 37.0455C9.00491 37.0455 8.83588 37.0767 8.69099 37.1392C8.54753 37.2017 8.43531 37.2876 8.35434 37.397C8.2748 37.5064 8.23503 37.6307 8.23503 37.7699C8.23503 37.8864 8.26273 37.9865 8.31812 38.0703C8.37494 38.1527 8.44738 38.2216 8.53545 38.277C8.62352 38.331 8.71585 38.3757 8.81244 38.4112C8.90903 38.4453 8.99781 38.473 9.07878 38.4943L9.52196 38.6136C9.63559 38.6435 9.76201 38.6847 9.90122 38.7372C10.0418 38.7898 10.1761 38.8615 10.3039 38.9524C10.4332 39.0419 10.5397 39.157 10.6235 39.2976C10.7073 39.4382 10.7492 39.6108 10.7492 39.8153C10.7492 40.0511 10.6874 40.2642 10.5639 40.4545C10.4417 40.6449 10.2627 40.7962 10.0269 40.9084C9.79255 41.0206 9.50775 41.0767 9.17253 41.0767C8.86003 41.0767 8.58943 41.0263 8.36074 40.9254C8.13346 40.8246 7.95449 40.6839 7.8238 40.5036C7.69454 40.3232 7.62139 40.1136 7.60434 39.875H8.1498C8.164 40.0398 8.2194 40.1761 8.31599 40.2841C8.414 40.3906 8.53758 40.4702 8.68673 40.5227C8.8373 40.5739 8.99923 40.5994 9.17253 40.5994C9.37423 40.5994 9.55534 40.5668 9.71585 40.5014C9.87636 40.4347 10.0035 40.3423 10.0972 40.2244C10.191 40.1051 10.2379 39.9659 10.2379 39.8068C10.2379 39.6619 10.1974 39.544 10.1164 39.4531C10.0355 39.3622 9.92892 39.2884 9.79682 39.2315C9.66471 39.1747 9.52196 39.125 9.36855 39.0824L8.83162 38.929C8.49071 38.831 8.22082 38.6911 8.02196 38.5092C7.82309 38.3274 7.72366 38.0895 7.72366 37.7955C7.72366 37.5511 7.78971 37.3381 7.92182 37.1562C8.05534 36.973 8.23432 36.831 8.45875 36.7301C8.6846 36.6278 8.93673 36.5767 9.21514 36.5767C9.49639 36.5767 9.74639 36.6271 9.96514 36.728C10.1839 36.8274 10.3572 36.9638 10.485 37.1371C10.6143 37.3104 10.6825 37.5071 10.6896 37.7273H10.1782ZM17.1298 38.8182C17.1298 39.2784 17.0467 39.6761 16.8805 40.0114C16.7144 40.3466 16.4864 40.6051 16.1966 40.7869C15.9068 40.9688 15.5759 41.0597 15.2037 41.0597C14.8315 41.0597 14.5006 40.9688 14.2108 40.7869C13.921 40.6051 13.693 40.3466 13.5269 40.0114C13.3607 39.6761 13.2776 39.2784 13.2776 38.8182C13.2776 38.358 13.3607 37.9602 13.5269 37.625C13.693 37.2898 13.921 37.0312 14.2108 36.8494C14.5006 36.6676 14.8315 36.5767 15.2037 36.5767C15.5759 36.5767 15.9068 36.6676 16.1966 36.8494C16.4864 37.0312 16.7144 37.2898 16.8805 37.625C17.0467 37.9602 17.1298 38.358 17.1298 38.8182ZM16.6185 38.8182C16.6185 38.4403 16.5553 38.1214 16.4288 37.8615C16.3038 37.6016 16.1341 37.4048 15.9196 37.2713C15.7065 37.1378 15.4679 37.071 15.2037 37.071C14.9395 37.071 14.7001 37.1378 14.4857 37.2713C14.2726 37.4048 14.1028 37.6016 13.9764 37.8615C13.8514 38.1214 13.7889 38.4403 13.7889 38.8182C13.7889 39.196 13.8514 39.5149 13.9764 39.7749C14.1028 40.0348 14.2726 40.2315 14.4857 40.3651C14.7001 40.4986 14.9395 40.5653 15.2037 40.5653C15.4679 40.5653 15.7065 40.4986 15.9196 40.3651C16.1341 40.2315 16.3038 40.0348 16.4288 39.7749C16.5553 39.5149 16.6185 39.196 16.6185 38.8182ZM19.8483 41V36.6364H22.4648V37.1051H20.3767V38.5795H22.2688V39.0483H20.3767V41H19.8483ZM24.9612 37.1051V36.6364H28.2339V37.1051H26.8617V41H26.3333V37.1051H24.9612ZM31.672 41L30.4789 36.6364H31.0158L31.9277 40.1903H31.9703L32.8993 36.6364H33.4959L34.4249 40.1903H34.4675L35.3794 36.6364H35.9164L34.7232 41H34.1777L33.2146 37.5227H33.1806L32.2175 41H31.672ZM38.2439 41H37.6899L39.2922 36.6364H39.8376L41.4399 41H40.8859L39.5819 37.3267H39.5478L38.2439 41ZM38.4484 39.2955H40.6814V39.7642H38.4484V39.2955ZM43.9496 41V36.6364H45.424C45.7649 36.6364 46.0447 36.6946 46.2635 36.8111C46.4822 36.9261 46.6442 37.0845 46.7493 37.2862C46.8544 37.4879 46.907 37.7173 46.907 37.9744C46.907 38.2315 46.8544 38.4595 46.7493 38.6584C46.6442 38.8572 46.483 39.0135 46.2656 39.1271C46.0483 39.2393 45.7706 39.2955 45.4325 39.2955H44.2394V38.8182H45.4155C45.6484 38.8182 45.8359 38.7841 45.978 38.7159C46.1215 38.6477 46.2251 38.5511 46.2891 38.4261C46.3544 38.2997 46.3871 38.1491 46.3871 37.9744C46.3871 37.7997 46.3544 37.647 46.2891 37.5163C46.2237 37.3857 46.1193 37.2848 45.9759 37.2138C45.8324 37.1413 45.6428 37.1051 45.407 37.1051H44.478V41H43.9496ZM46.0036 39.0398L47.0774 41H46.4638L45.407 39.0398H46.0036ZM49.6175 41V36.6364H52.251V37.1051H50.1459V38.5795H52.1146V39.0483H50.1459V40.5312H52.2851V41H49.6175ZM59.8975 41H58.5509V36.6364H59.9572C60.3805 36.6364 60.7427 36.7237 61.0438 36.8984C61.3449 37.0717 61.5758 37.321 61.7363 37.6463C61.8968 37.9702 61.977 38.358 61.977 38.8097C61.977 39.2642 61.8961 39.6555 61.7341 39.9837C61.5722 40.3104 61.3364 40.5618 61.0268 40.7379C60.7171 40.9126 60.3407 41 59.8975 41ZM59.0793 40.5312H59.8634C60.2242 40.5312 60.5232 40.4616 60.7604 40.3224C60.9976 40.1832 61.1745 39.9851 61.291 39.728C61.4074 39.4709 61.4657 39.1648 61.4657 38.8097C61.4657 38.4574 61.4082 38.1541 61.2931 37.8999C61.178 37.6442 61.0062 37.4482 60.7775 37.3118C60.5488 37.174 60.264 37.1051 59.9231 37.1051H59.0793V40.5312ZM64.6934 41V36.6364H67.3269V37.1051H65.2218V38.5795H67.1906V39.0483H65.2218V40.5312H67.361V41H64.6934ZM70.2883 36.6364L71.5838 40.3097H71.6349L72.9304 36.6364H73.4843L71.8821 41H71.3366L69.7343 36.6364H70.2883ZM75.994 41V36.6364H78.6276V37.1051H76.5224V38.5795H78.4912V39.0483H76.5224V40.5312H78.6616V41H75.994ZM81.41 41V36.6364H81.9384V40.5312H83.9668V41H81.41ZM90.1269 38.8182C90.1269 39.2784 90.0438 39.6761 89.8776 40.0114C89.7114 40.3466 89.4834 40.6051 89.1936 40.7869C88.9039 40.9688 88.5729 41.0597 88.2007 41.0597C87.8286 41.0597 87.4976 40.9688 87.2078 40.7869C86.9181 40.6051 86.6901 40.3466 86.5239 40.0114C86.3577 39.6761 86.2746 39.2784 86.2746 38.8182C86.2746 38.358 86.3577 37.9602 86.5239 37.625C86.6901 37.2898 86.9181 37.0312 87.2078 36.8494C87.4976 36.6676 87.8286 36.5767 88.2007 36.5767C88.5729 36.5767 88.9039 36.6676 89.1936 36.8494C89.4834 37.0312 89.7114 37.2898 89.8776 37.625C90.0438 37.9602 90.1269 38.358 90.1269 38.8182ZM89.6155 38.8182C89.6155 38.4403 89.5523 38.1214 89.4259 37.8615C89.3009 37.6016 89.1311 37.4048 88.9166 37.2713C88.7036 37.1378 88.4649 37.071 88.2007 37.071C87.9365 37.071 87.6972 37.1378 87.4827 37.2713C87.2696 37.4048 87.0999 37.6016 86.9735 37.8615C86.8485 38.1214 86.786 38.4403 86.786 38.8182C86.786 39.196 86.8485 39.5149 86.9735 39.7749C87.0999 40.0348 87.2696 40.2315 87.4827 40.3651C87.6972 40.4986 87.9365 40.5653 88.2007 40.5653C88.4649 40.5653 88.7036 40.4986 88.9166 40.3651C89.1311 40.2315 89.3009 40.0348 89.4259 39.7749C89.5523 39.5149 89.6155 39.196 89.6155 38.8182ZM92.8454 41V36.6364H94.3198C94.6621 36.6364 94.9419 36.6982 95.1593 36.8217C95.378 36.9439 95.54 37.1094 95.6451 37.3182C95.7502 37.527 95.8027 37.7599 95.8027 38.017C95.8027 38.2741 95.7502 38.5078 95.6451 38.718C95.5414 38.9283 95.3809 39.0959 95.1635 39.2209C94.9462 39.3445 94.6678 39.4062 94.3283 39.4062H93.2715V38.9375H94.3113C94.5456 38.9375 94.7339 38.897 94.8759 38.8161C95.0179 38.7351 95.1209 38.6257 95.1848 38.4879C95.2502 38.3487 95.2829 38.1918 95.2829 38.017C95.2829 37.8423 95.2502 37.6861 95.1848 37.5483C95.1209 37.4105 95.0172 37.3026 94.8738 37.2244C94.7303 37.1449 94.54 37.1051 94.3027 37.1051H93.3738V41H92.8454ZM98.484 36.6364H99.1146L100.598 40.2585H100.649L102.132 36.6364H102.762V41H102.268V37.6847H102.225L100.862 41H100.385L99.0209 37.6847H98.9783V41H98.484V36.6364ZM105.652 41V36.6364H108.285V37.1051H106.18V38.5795H108.149V39.0483H106.18V40.5312H108.319V41H105.652ZM114.528 36.6364V41H114.017L111.639 37.5739H111.596V41H111.068V36.6364H111.579L113.966 40.071H114.008V36.6364H114.528ZM117.177 37.1051V36.6364H120.449V37.1051H119.077V41H118.549V37.1051H117.177Z" fill="white"/>
    <line x1="2.5" y1="19" x2="2.5" y2="27" stroke="white"/>
    <line x1="2" y1="19" x2="10" y2="19" stroke="white"/>
    <line x1="125.5" y1="45" x2="125.5" y2="37" stroke="white"/>
    <line x1="126" y1="45" x2="118" y2="45" stroke="white"/>
</svg>
